# Blender v2.79 (sub 0) OBJ File: ''
# www.blender.org
mtllib cos.mtl
o Cube
v 2.748183 -1.000000 -2.748183
v 2.748183 -1.000000 2.748183
v -2.748184 -1.000000 2.748183
v -2.748183 -1.000000 -2.748184
v 0.288920 -0.347173 -0.288920
v 0.288919 -0.347173 0.288920
v -0.288920 -0.347173 0.288920
v -0.288920 -0.347173 -0.288920
v 1.000000 0.000000 -1.000000
v 1.000000 0.000000 1.000000
v -1.000000 0.000000 1.000000
v -1.000000 0.000000 -1.000000
vt 0.879833 0.867807
vt 0.829490 0.792192
vt 0.879851 0.792218
vt 0.829472 0.867781
vt 0.000261 0.719257
vt 0.479292 0.000261
vt 0.479292 0.719257
vt 0.592148 0.999739
vt 0.479813 0.896226
vt 0.654121 0.896226
vt 0.766977 0.895705
vt 0.654643 0.792192
vt 0.828951 0.792192
vt 0.716616 0.896226
vt 0.828951 0.999739
vt 0.654643 0.999739
vt 0.958844 0.791670
vt 0.632174 0.528215
vt 0.806483 0.528215
vt 0.592148 0.792192
vt 0.479813 0.895705
vt 0.541787 0.792192
vt 0.632174 0.000261
vt 0.958844 0.263716
vt 0.479813 0.263716
vt 0.806483 0.527693
vt 0.479813 0.264238
vt 0.958844 0.264238
vt 0.326930 0.983233
vt 0.000261 0.719778
vt 0.479291 0.719778
vt 0.000261 0.000261
vt 0.541787 0.999739
vt 0.716616 0.895705
vt 0.766977 0.896226
vt 0.479813 0.791671
vt 0.654121 0.895705
vt 0.806482 0.000261
vt 0.632174 0.527693
vt 0.152622 0.983234
vn 0.0000 1.0000 0.0000
vn 0.0000 -1.0000 0.0000
vn -0.4387 0.8986 -0.0000
vn 0.0000 0.8986 -0.4387
vn 0.4387 0.8986 0.0000
vn 0.0000 0.8680 -0.4965
vn -0.0000 0.8986 0.4387
vn -0.4965 0.8680 -0.0000
vn -0.0000 0.8680 0.4965
vn 0.4965 0.8680 0.0000
usemtl Material.002
s off
f 5/1/1 7/2/1 6/3/1
f 5/1/1 8/4/1 7/2/1
usemtl Material.002_NONE
f 2/5/2 4/6/2 1/7/2
f 5/8/3 10/9/3 9/10/3
f 6/11/4 11/12/4 10/13/4
f 7/14/5 12/15/5 11/16/5
f 1/17/6 12/18/6 9/19/6
f 5/20/7 12/21/7 8/22/7
f 11/23/8 4/24/8 3/25/8
f 10/26/9 3/27/9 2/28/9
f 9/29/10 2/30/10 1/31/10
f 2/5/2 3/32/2 4/6/2
f 5/8/3 6/33/3 10/9/3
f 6/11/4 7/34/4 11/12/4
f 7/14/5 8/35/5 12/15/5
f 1/17/6 4/36/6 12/18/6
f 5/20/7 9/37/7 12/21/7
f 11/23/8 12/38/8 4/24/8
f 10/26/9 11/39/9 3/27/9
f 9/29/10 10/40/10 2/30/10
